<?xml version="1.0" encoding="UTF-8"?>
<!DOCTYPE svg PUBLIC "-//W3C//DTD SVG 1.1//EN" "http://www.w3.org/Graphics/SVG/1.1/DTD/svg11.dtd">
<svg xmlns="http://www.w3.org/2000/svg" version="1.1" width="170px" height="60px" style="shape-rendering:geometricPrecision; text-rendering:geometricPrecision; image-rendering:optimizeQuality; fill-rule:evenodd; clip-rule:evenodd" xmlns:xlink="http://www.w3.org/1999/xlink">
<g><path style="opacity:1" fill="#f7f8fa" d="M 21.5,-0.5 C 27.1667,-0.5 32.8333,-0.5 38.5,-0.5C 56.8956,6.61636 64.0623,19.9497 60,39.5C 55.9196,49.0815 49.0863,55.7481 39.5,59.5C 33.5,59.5 27.5,59.5 21.5,59.5C 10.4739,55.8073 3.14061,48.474 -0.5,37.5C -0.5,32.1667 -0.5,26.8333 -0.5,21.5C 3.16667,10.5 10.5,3.16667 21.5,-0.5 Z"/></g>
<g><path style="opacity:0.899" fill="#dee2ea" d="M 94.5,23.5 C 94.1788,25.0481 93.1788,25.7148 91.5,25.5C 91.0831,24.8761 90.4164,24.5427 89.5,24.5C 86.3582,26.1187 83.0248,26.7854 79.5,26.5C 79.6602,24.8008 79.4935,23.1341 79,21.5C 78.0009,25.2372 76.6675,25.2372 75,21.5C 75.0187,23.1075 75.1854,24.7741 75.5,26.5C 74.1667,26.5 72.8333,26.5 71.5,26.5C 71.5,22.5 71.5,18.5 71.5,14.5C 74.4797,14.2411 76.313,15.5744 77,18.5C 78.1882,17.4366 78.6882,16.1033 78.5,14.5C 80.1667,14.5 81.8333,14.5 83.5,14.5C 83.335,17.8499 83.5017,21.1832 84,24.5C 87.1029,11.8187 90.6029,11.4853 94.5,23.5 Z"/></g>
<g><path style="opacity:0.197" fill="#8a99b3" d="M 100.5,14.5 C 99.4324,15.4345 98.099,15.7678 96.5,15.5C 96.5,18.8333 96.5,22.1667 96.5,25.5C 97.5,25.5 98.5,25.5 99.5,25.5C 96.8333,26.8333 94.1667,26.8333 91.5,25.5C 93.1788,25.7148 94.1788,25.0481 94.5,23.5C 95.4767,20.7131 95.81,17.7131 95.5,14.5C 97.1667,14.5 98.8333,14.5 100.5,14.5 Z"/></g>
<g><path style="opacity:1" fill="#e3e6ed" d="M 100.5,14.5 C 102.582,14.6243 104.082,15.6243 105,17.5C 105.483,16.552 105.649,15.552 105.5,14.5C 106.833,14.5 108.167,14.5 109.5,14.5C 109.5,17.1667 109.5,19.8333 109.5,22.5C 111.167,22.5 112.833,22.5 114.5,22.5C 114.5,23.8333 114.5,25.1667 114.5,26.5C 111.5,26.5 108.5,26.5 105.5,26.5C 105.662,24.4727 105.495,22.4727 105,20.5C 103.11,22.2538 101.277,23.9205 99.5,25.5C 98.5,25.5 97.5,25.5 96.5,25.5C 96.5,22.1667 96.5,18.8333 96.5,15.5C 98.099,15.7678 99.4324,15.4345 100.5,14.5 Z M 99.5,18.5 C 101.337,18.6395 101.67,19.3061 100.5,20.5C 99.7025,20.0431 99.3691,19.3764 99.5,18.5 Z"/></g>
<g><path style="opacity:0.976" fill="#e6e9ef" d="M 114.5,15.5 C 117.572,15.1826 120.572,15.5159 123.5,16.5C 121.709,17.1698 120.042,17.8365 118.5,18.5C 119.919,19.4511 121.585,19.7845 123.5,19.5C 123.993,21.8056 124.326,24.139 124.5,26.5C 121.5,26.5 118.5,26.5 115.5,26.5C 115.768,24.901 115.434,23.5676 114.5,22.5C 114.5,20.1667 114.5,17.8333 114.5,15.5 Z"/></g>
<g><path style="opacity:0.97" fill="#dde1e9" d="M 138.5,17.5 C 138.5,17.8333 138.5,18.1667 138.5,18.5C 137.5,18.5 136.5,18.5 135.5,18.5C 134.835,20.6979 134.168,23.0312 133.5,25.5C 132.832,23.0312 132.165,20.6979 131.5,18.5C 130.5,18.5 129.5,18.5 128.5,18.5C 128.5,17.1667 128.5,15.8333 128.5,14.5C 131.833,14.5 135.167,14.5 138.5,14.5C 138.5,15.5 138.5,16.5 138.5,17.5 Z"/></g>
<g><path style="opacity:0.95" fill="#e4e7ee" d="M 148.5,23.5 C 148.5,21.8333 148.5,20.1667 148.5,18.5C 146.473,18.3379 144.473,18.5045 142.5,19C 144.134,19.4935 145.801,19.6602 147.5,19.5C 147.5,20.8333 147.5,22.1667 147.5,23.5C 145.365,25.369 142.698,26.0356 139.5,25.5C 139.5,22.8333 139.5,20.1667 139.5,17.5C 139.5,16.5 139.5,15.5 139.5,14.5C 142.5,14.5 145.5,14.5 148.5,14.5C 148.351,15.552 148.517,16.552 149,17.5C 151.373,14.6978 154.207,14.0311 157.5,15.5C 158.731,16.6507 158.731,17.8173 157.5,19C 155.893,18.9813 154.226,18.8146 152.5,18.5C 152.5,19.8333 152.5,21.1667 152.5,22.5C 154.226,22.1854 155.893,22.0187 157.5,22C 158.925,23.7141 158.592,25.0475 156.5,26C 153.225,26.9818 150.559,26.1485 148.5,23.5 Z M 148.5,23.5 C 148.167,23.5 147.833,23.5 147.5,23.5C 147.5,22.1667 147.5,20.8333 147.5,19.5C 145.801,19.6602 144.134,19.4935 142.5,19C 144.473,18.5045 146.473,18.3379 148.5,18.5C 148.5,20.1667 148.5,21.8333 148.5,23.5 Z"/></g>
<g><path style="opacity:0.891" fill="#f1f2f6" d="M 169.5,14.5 C 169.5,18.5 169.5,22.5 169.5,26.5C 168.5,26.5 167.5,26.5 166.5,26.5C 166.5,25.1667 166.5,23.8333 166.5,22.5C 165.5,22.5 164.5,22.5 163.5,22.5C 163.5,23.5 163.5,24.5 163.5,25.5C 162.5,25.5 161.5,25.5 160.5,25.5C 160.5,22.1667 160.5,18.8333 160.5,15.5C 161.5,15.5 162.5,15.5 163.5,15.5C 163.5,16.5 163.5,17.5 163.5,18.5C 164.5,18.5 165.5,18.5 166.5,18.5C 166.5,17.1667 166.5,15.8333 166.5,14.5C 167.5,14.5 168.5,14.5 169.5,14.5 Z"/></g>
<g><path style="opacity:0.225" fill="#7a8ba9" d="M 114.5,15.5 C 117.625,14.5206 120.958,14.1872 124.5,14.5C 124.5,15.8333 124.5,17.1667 124.5,18.5C 122.5,18.5 120.5,18.5 118.5,18.5C 120.042,17.8365 121.709,17.1698 123.5,16.5C 120.572,15.5159 117.572,15.1826 114.5,15.5 Z"/></g>
<g><path style="opacity:0.451" fill="#a1adc2" d="M 163.5,15.5 C 162.5,15.5 161.5,15.5 160.5,15.5C 160.5,18.8333 160.5,22.1667 160.5,25.5C 161.5,25.5 162.5,25.5 163.5,25.5C 162.432,26.4345 161.099,26.7678 159.5,26.5C 159.5,22.5 159.5,18.5 159.5,14.5C 161.099,14.2322 162.432,14.5655 163.5,15.5 Z"/></g>
<g><path style="opacity:0.396" fill="#8e9cb6" d="M 131.5,18.5 C 132.165,20.6979 132.832,23.0312 133.5,25.5C 134.168,23.0312 134.835,20.6979 135.5,18.5C 135.5,21.1667 135.5,23.8333 135.5,26.5C 134.167,26.5 132.833,26.5 131.5,26.5C 131.5,23.8333 131.5,21.1667 131.5,18.5 Z"/></g>
<g><path style="opacity:1" fill="#162156" d="M 29.5,10.5 C 31.3838,11.3816 32.7171,12.8816 33.5,15C 34.7932,15.49 36.1266,15.6567 37.5,15.5C 37.7683,18.1194 37.435,20.6194 36.5,23C 38.1068,23.1151 39.6068,22.6151 41,21.5C 43.694,22.8423 46.5274,23.8423 49.5,24.5C 47.0925,27.1309 47.0925,29.6309 49.5,32C 45.9961,33.9177 42.6628,36.0843 39.5,38.5C 40.2458,39.7362 40.5792,41.0695 40.5,42.5C 37.5,42.5 34.5,42.5 31.5,42.5C 30.8333,50.5 30.1667,50.5 29.5,42.5C 26.1667,42.5 22.8333,42.5 19.5,42.5C 19.8146,40.7741 19.9813,39.1075 20,37.5C 16.727,36.0506 13.8937,34.0506 11.5,31.5C 12.1667,30.8333 12.8333,30.1667 13.5,29.5C 12.2528,27.677 11.5861,25.677 11.5,23.5C 14.2438,23.7521 16.7438,23.0855 19,21.5C 20.2853,21.9504 21.452,22.6171 22.5,23.5C 23.48,20.9135 23.8134,18.2469 23.5,15.5C 26.9488,15.6241 28.9488,13.9574 29.5,10.5 Z"/></g>
<g><path style="opacity:1" fill="#f1f2f6" d="M 29.5,14.5 C 30.9998,15.5875 32.3331,16.9208 33.5,18.5C 34.4841,21.4281 34.8174,24.4281 34.5,27.5C 36.4835,27.6168 38.1502,26.9501 39.5,25.5C 41.9302,26.2502 44.2635,26.5835 46.5,26.5C 45.066,28.2199 44.2326,30.2199 44,32.5C 42.172,34.0814 40.172,35.4147 38,36.5C 37.51,37.7932 37.3433,39.1266 37.5,40.5C 35.5,40.5 33.5,40.5 31.5,40.5C 31.3505,39.448 31.5172,38.448 32,37.5C 33.9717,36.6948 35.4717,35.3615 36.5,33.5C 36.1667,33.1667 35.8333,32.8333 35.5,32.5C 32.8151,35.3045 31.1484,34.6379 30.5,30.5C 29.1476,31.5175 28.1476,32.8508 27.5,34.5C 26.1521,32.5387 24.8187,32.3721 23.5,34C 26.455,35.4482 28.455,37.6149 29.5,40.5C 27.076,40.8076 24.7427,40.4742 22.5,39.5C 22.8333,38.8333 23.1667,38.1667 23.5,37.5C 21.0072,35.4197 18.3405,33.5864 15.5,32C 15.9574,31.586 16.2907,31.086 16.5,30.5C 15.3595,28.9222 14.8595,27.2555 15,25.5C 16.9452,26.6922 18.9452,26.6922 21,25.5C 22.5671,26.8561 24.4004,27.5228 26.5,27.5C 26.2962,24.4824 25.9629,21.4824 25.5,18.5C 28.142,18.5123 29.4754,17.179 29.5,14.5 Z"/></g>
<g><path style="opacity:0.22" fill="#8897b2" d="M 138.5,17.5 C 138.833,17.5 139.167,17.5 139.5,17.5C 139.5,20.1667 139.5,22.8333 139.5,25.5C 142.698,26.0356 145.365,25.369 147.5,23.5C 147.833,23.5 148.167,23.5 148.5,23.5C 148.5,24.5 148.5,25.5 148.5,26.5C 145.167,26.5 141.833,26.5 138.5,26.5C 138.5,23.8333 138.5,21.1667 138.5,18.5C 138.5,18.1667 138.5,17.8333 138.5,17.5 Z"/></g>
<g><path style="opacity:0.999" fill="#cbd1dd" d="M 91.5,36.5 C 91.5,34.5 91.5,32.5 91.5,30.5C 88.8333,30.5 86.1667,30.5 83.5,30.5C 81.7922,33.9503 80.4588,37.617 79.5,41.5C 78.0222,41.762 76.6888,41.4287 75.5,40.5C 73.7622,36.951 72.4289,33.2843 71.5,29.5C 75.0379,29.2153 76.8712,30.882 77,34.5C 78.02,33.1095 78.8534,31.6095 79.5,30C 83.8206,29.501 88.1539,29.3343 92.5,29.5C 92.8016,32.0593 92.4682,34.3926 91.5,36.5 Z"/></g>
<g><path style="opacity:0.824" fill="#e3e6ed" d="M 83.5,30.5 C 86.1667,30.5 88.8333,30.5 91.5,30.5C 91.5,32.5 91.5,34.5 91.5,36.5C 86.5,37.0031 86.8333,37.3364 92.5,37.5C 92.5,38.8333 92.5,40.1667 92.5,41.5C 89.5,41.5 86.5,41.5 83.5,41.5C 83.5,37.8333 83.5,34.1667 83.5,30.5 Z"/></g>
<g><path style="opacity:0.906" fill="#e5e8ee" d="M 103.5,32.5 C 103.5,35.1667 103.5,37.8333 103.5,40.5C 102.5,40.5 101.5,40.5 100.5,40.5C 98.1471,36.1883 97.1471,36.5216 97.5,41.5C 96.1667,41.5 94.8333,41.5 93.5,41.5C 93.5,37.5 93.5,33.5 93.5,29.5C 96.8628,29.5127 99.0295,31.1794 100,34.5C 100.494,32.8659 100.66,31.1992 100.5,29.5C 101.5,29.5 102.5,29.5 103.5,29.5C 103.5,30.5 103.5,31.5 103.5,32.5 Z"/></g>
<g><path style="opacity:0.917" fill="#fbfbfc" d="M 113.5,32.5 C 113.158,33.3382 112.492,33.6716 111.5,33.5C 110.532,35.6074 110.198,37.9407 110.5,40.5C 109.5,40.5 108.5,40.5 107.5,40.5C 107.5,38.1667 107.5,35.8333 107.5,33.5C 106.909,32.8485 106.243,32.1818 105.5,31.5C 106.833,31.1667 108.167,30.8333 109.5,30.5C 111.333,30.5854 112.666,31.2521 113.5,32.5 Z"/></g>
<g><path style="opacity:0.212" fill="#919fb8" d="M 118.5,37.5 C 117.835,35.3021 117.168,32.9688 116.5,30.5C 115.52,33.0865 115.187,35.7531 115.5,38.5C 114.833,36.5 114.167,34.5 113.5,32.5C 112.666,31.2521 111.333,30.5854 109.5,30.5C 108.167,30.8333 106.833,31.1667 105.5,31.5C 106.243,32.1818 106.909,32.8485 107.5,33.5C 106.5,33.5 105.5,33.5 104.5,33.5C 104.5,36.1667 104.5,38.8333 104.5,41.5C 102.901,41.7678 101.568,41.4345 100.5,40.5C 101.5,40.5 102.5,40.5 103.5,40.5C 103.5,37.8333 103.5,35.1667 103.5,32.5C 104.404,31.791 104.737,30.791 104.5,29.5C 109.167,29.5 113.833,29.5 118.5,29.5C 118.5,32.1667 118.5,34.8333 118.5,37.5 Z"/></g>
<g><path style="opacity:0.894" fill="#eef0f4" d="M 115.5,38.5 C 115.187,35.7531 115.52,33.0865 116.5,30.5C 117.168,32.9688 117.835,35.3021 118.5,37.5C 119.5,37.5 120.5,37.5 121.5,37.5C 121.5,34.8333 121.5,32.1667 121.5,29.5C 122.833,29.5 124.167,29.5 125.5,29.5C 126.154,33.8394 125.154,37.6727 122.5,41C 119.386,42.0874 117.053,41.254 115.5,38.5 Z"/></g>
<g><path style="opacity:0.89" fill="#dce0e8" d="M 146.5,31.5 C 149.466,28.8449 152.466,28.8449 155.5,31.5C 154.91,32.7989 153.91,33.6322 152.5,34C 157.5,35.6667 157.833,38 153.5,41C 151.08,41.6869 148.913,41.1869 147,39.5C 145.647,40.7042 143.981,41.3708 142,41.5C 139.346,40.9102 136.846,40.9102 134.5,41.5C 132.372,40.9459 130.872,39.6126 130,37.5C 129.51,38.7932 129.343,40.1266 129.5,41.5C 127.654,41.7778 126.32,41.1112 125.5,39.5C 126.417,36.2423 126.751,32.909 126.5,29.5C 128.857,29.3367 131.19,29.5034 133.5,30C 134.667,30.5 135.5,31.3333 136,32.5C 136.483,31.552 136.649,30.552 136.5,29.5C 140.329,28.931 143.663,29.5977 146.5,31.5 Z M 146.5,31.5 C 148.433,37.8356 146.433,39.669 140.5,37C 142.134,36.5065 143.801,36.3398 145.5,36.5C 145.216,34.5853 145.549,32.9187 146.5,31.5 Z M 135.5,34.5 C 136.613,35.9464 136.78,37.6131 136,39.5C 134.372,38.0383 134.205,36.3717 135.5,34.5 Z"/></g>
<g><path style="opacity:0.841" fill="#cd0909" d="M 162.5,32.5 C 164.833,32.5 167.167,32.5 169.5,32.5C 169.5,35.1667 169.5,37.8333 169.5,40.5C 167.167,40.5 164.833,40.5 162.5,40.5C 162.5,37.8333 162.5,35.1667 162.5,32.5 Z"/></g>
<g><path style="opacity:0.059" fill="#63769a" d="M 111.5,33.5 C 111.5,36.1667 111.5,38.8333 111.5,41.5C 109.901,41.7678 108.568,41.4345 107.5,40.5C 108.5,40.5 109.5,40.5 110.5,40.5C 110.198,37.9407 110.532,35.6074 111.5,33.5 Z"/></g>
<g><path style="opacity:0.068" fill="#451e44" d="M 162.5,32.5 C 162.5,35.1667 162.5,37.8333 162.5,40.5C 164.833,40.5 167.167,40.5 169.5,40.5C 169.5,40.8333 169.5,41.1667 169.5,41.5C 166.833,41.5 164.167,41.5 161.5,41.5C 161.19,38.2869 161.523,35.2869 162.5,32.5 Z"/></g>
</svg>
